<svg xmlns="http://www.w3.org/2000/svg" width="20" height="20" viewBox="0 0 20 20" fill="none">
  <path d="M14.9997 1.66699H4.99967C4.08051 1.66699 3.33301 2.41449 3.33301 3.33366V17.5003C3.33301 17.7213 3.42081 17.9333 3.57709 18.0896C3.73337 18.2459 3.94533 18.3337 4.16634 18.3337H15.833C16.054 18.3337 16.266 18.2459 16.4223 18.0896C16.5785 17.9333 16.6663 17.7213 16.6663 17.5003V3.33366C16.6663 2.41449 15.9188 1.66699 14.9997 1.66699ZM14.9997 16.667H4.99967V3.33366H14.9997V16.667Z" fill="#252525"/>
  <path d="M6.66699 5H9.16699V6.66667H6.66699V5ZM10.8337 5H13.3337V6.66667H10.8337V5ZM6.66699 8.33333H9.16699V10H6.66699V8.33333ZM10.8337 8.35917H13.3337V10H10.8337V8.35917ZM6.66699 11.6667H9.16699V13.3333H6.66699V11.6667ZM10.8337 11.6667H13.3337V13.3333H10.8337V11.6667Z" fill="#252525"/>
</svg>