<svg xmlns="http://www.w3.org/2000/svg" width="18" height="18" viewBox="0 0 18 18" fill="none"><path d="M14.4223 11.4448L12.5173 11.2273C12.2933 11.201 12.0662 11.2258 11.8532 11.2999C11.6402 11.3739 11.4467 11.4953 11.2873 11.6548L9.90729 13.0348C7.77833 11.9518 6.04783 10.2213 4.96479 8.09233L6.35229 6.70483C6.67479 6.38233 6.83229 5.93233 6.77979 5.47483L6.56229 3.58483C6.51992 3.21889 6.34439 2.88134 6.06913 2.63652C5.79388 2.3917 5.43816 2.25672 5.06979 2.25733H3.77229C2.92479 2.25733 2.21979 2.96233 2.27229 3.80983C2.66979 10.2148 7.79229 15.3298 14.1898 15.7273C15.0373 15.7798 15.7423 15.0748 15.7423 14.2273V12.9298C15.7498 12.1723 15.1798 11.5348 14.4223 11.4448Z" fill="#F4F4F4"/></svg>