<svg xmlns="http://www.w3.org/2000/svg" width="20" height="20" viewBox="0 0 20 20" fill="none">
  <path d="M10.0003 1.66699C6.77533 1.66699 4.16699 4.27533 4.16699 7.50033C4.16699 11.8753 10.0003 18.3337 10.0003 18.3337C10.0003 18.3337 15.8337 11.8753 15.8337 7.50033C15.8337 4.27533 13.2253 1.66699 10.0003 1.66699ZM5.83366 7.50033C5.83366 5.20033 7.70033 3.33366 10.0003 3.33366C12.3003 3.33366 14.167 5.20033 14.167 7.50033C14.167 9.90033 11.767 13.492 10.0003 15.7337C8.26699 13.5087 5.83366 9.87533 5.83366 7.50033Z" fill="#252525"/>
  <path d="M10.0003 9.58366C11.1509 9.58366 12.0837 8.65092 12.0837 7.50033C12.0837 6.34973 11.1509 5.41699 10.0003 5.41699C8.84973 5.41699 7.91699 6.34973 7.91699 7.50033C7.91699 8.65092 8.84973 9.58366 10.0003 9.58366Z" fill="#252525"/>
</svg>