<svg xmlns="http://www.w3.org/2000/svg" width="20" height="20" viewBox="0 0 20 20" fill="none">
  <g clip-path="url(#clip0_74_895)">
    <path d="M18.8418 15.8246L11.2751 8.2579C12.0501 6.3079 11.6501 4.0079 10.0751 2.42457C8.15842 0.507902 5.17509 0.332902 3.05009 1.8829L6.25009 5.09124L5.06676 6.26624L1.87509 3.07457C0.32509 5.19124 0.50009 8.1829 2.41676 10.0912C3.96676 11.6412 6.22509 12.0496 8.15842 11.3246L15.7501 18.9162C16.0751 19.2412 16.6001 19.2412 16.9251 18.9162L18.8418 16.9996C19.1751 16.6829 19.1751 16.1579 18.8418 15.8246ZM16.3418 17.1579L8.45842 9.27457C7.95009 9.64957 7.38342 9.87457 6.79176 9.9579C5.65842 10.1246 4.46676 9.7829 3.60009 8.91624C2.80842 8.1329 2.44176 7.0829 2.50009 6.04957L5.07509 8.62457L8.60842 5.09124L6.03342 2.51624C7.06676 2.4579 8.10842 2.82457 8.90009 3.6079C9.32627 4.03345 9.64292 4.55598 9.82289 5.13073C10.0029 5.70547 10.0408 6.31529 9.93342 6.9079C9.82939 7.5051 9.57726 8.06667 9.20009 8.54124L17.0751 16.4162L16.3418 17.1579Z" fill="#252525"/>
  </g>
  <defs>
    <clipPath id="clip0_74_895">
      <rect width="20" height="20" fill="white"/>
    </clipPath>
  </defs>
</svg>