<svg xmlns="http://www.w3.org/2000/svg" width="118" height="31" viewBox="0 0 118 31" fill="none">
  <g clip-path="url(#clip0_157_248)">
    <path d="M103.411 23.0077C103.429 25.3802 103.444 27.7552 103.461 30.1277C102.975 30.1404 102.491 30.1632 102.005 30.1607C100.811 30.1582 99.6179 30.143 98.422 30.1303C98.3992 24.6502 98.379 19.1675 98.3511 13.6874C98.341 11.7661 98.308 9.84479 98.2903 7.92346C98.2903 7.80179 98.3055 7.68266 98.3156 7.56099C98.8198 7.55339 99.3265 7.54832 99.8307 7.54071C102.238 7.54071 104.645 7.54578 107.052 7.54071C107.204 7.54071 107.358 7.47988 107.51 7.44693L109.585 7.40637C110.647 7.56099 111.721 7.65478 112.74 8.03245C114.374 8.64079 115.674 9.64961 116.484 11.2161C116.672 11.5811 116.758 11.9968 116.892 12.3897C116.93 12.4353 116.966 12.4809 117.004 12.524C117.017 12.557 117.024 12.5899 117.029 12.6254C117.049 12.6786 117.07 12.7319 117.09 12.7876C117.336 13.908 117.432 15.0385 117.247 16.1791C117.209 16.3058 117.174 16.4351 117.136 16.5618C117.072 17.6061 116.636 18.5111 116.059 19.35C115.294 20.4628 114.245 21.2359 113.021 21.7834C112.859 21.8569 112.699 21.9304 112.522 22.009C114.361 24.6679 116.183 27.3015 118.002 29.9351C117.789 29.9681 117.574 30.0264 117.361 30.0289C116.312 30.0416 115.266 30.0466 114.217 30.0441C113.533 30.0441 112.849 30.0238 112.165 30.0112C110.644 27.7654 109.124 25.5221 107.604 23.2764C107.536 23.1775 107.455 23.0863 107.379 22.9925C107.277 22.9494 107.178 22.8683 107.077 22.8683C105.884 22.8683 104.693 22.8835 103.499 22.8911C103.472 22.9291 103.441 22.9646 103.413 23.0026L103.411 23.0077ZM109.099 12.0424C108.992 12.0044 108.889 11.9309 108.782 11.9309C107.044 11.9258 105.303 11.9309 103.565 11.941C103.507 11.941 103.449 12.0145 103.391 12.0525C103.393 14.1564 103.398 16.2627 103.401 18.3666C103.535 18.4147 103.669 18.5034 103.801 18.5034C105.334 18.5085 106.864 18.5034 108.397 18.4882C108.673 18.4857 108.952 18.4147 109.228 18.3767C109.666 18.2525 110.133 18.1841 110.541 17.994C111.486 17.5479 112.033 16.8178 112.165 15.7304C112.215 15.3046 112.147 14.9193 112.132 14.5163C112.122 14.2806 112.089 14.0296 111.995 13.8193C111.435 12.5798 110.404 12.0906 109.104 12.0449L109.099 12.0424Z" fill="white"/>
    <path d="M62.2959 27.9906C62.002 28.7916 61.7106 29.5925 61.4167 30.396C60.4742 30.4011 59.5342 30.4011 58.5917 30.4163C58.3991 30.4189 58.2091 30.4772 58.0165 30.5101H54.9204C55.0294 30.3606 55.1054 30.2541 55.1839 30.1476C57.0867 27.5115 57.5478 24.6194 56.5495 21.5473C55.6957 18.9213 53.9373 17.076 51.3125 16.1432C50.6639 15.9126 49.9595 15.8315 49.283 15.6794C48.7915 15.5045 48.2974 15.5095 47.8059 15.6743C44.4817 16.0393 42.1254 17.7325 40.7725 20.797C40.2404 22.0061 40.101 23.2861 40.0504 24.5966C40.0073 25.7423 40.3088 26.8195 40.6762 27.8562C41.0081 28.7966 41.563 29.661 42.2217 30.4366C42.0266 30.4645 41.8315 30.5177 41.6339 30.5177C40.4 30.5279 39.1661 30.5253 37.9322 30.5355C37.7371 30.5355 37.5446 30.5963 37.3495 30.6292C36.8276 30.6292 36.3082 30.6292 35.7862 30.6318C35.7482 30.5938 35.7077 30.5583 35.6697 30.5203C35.0743 29.2985 34.75 28.0007 34.4941 26.67C34.3775 26.054 34.3598 25.4432 34.3446 24.8298C34.304 23.2329 34.4966 21.6563 35.0236 20.1532C36.3284 16.4271 38.781 13.7175 42.3535 12.0141C43.524 11.4565 44.7604 11.127 46.0095 10.8456C46.5517 10.724 47.1243 10.7366 47.6817 10.6885C48.2949 10.6885 48.9106 10.6885 49.5237 10.6885C50.6081 10.8659 51.7229 10.942 52.7744 11.2436C56.7725 12.3868 59.7572 14.7973 61.5104 18.607C61.9184 19.4942 62.1489 20.4624 62.4276 21.4053C62.5188 21.7095 62.5036 22.0441 62.5391 22.3635C62.5746 22.4902 62.6101 22.6169 62.6481 22.7462C62.8077 23.8818 62.8051 25.0148 62.6481 26.1504C62.6405 26.2315 62.6354 26.3101 62.6278 26.3912C62.534 26.8753 62.4428 27.3569 62.3491 27.841C62.3314 27.8917 62.3162 27.9399 62.2984 27.9906H62.2959Z" fill="white"/>
    <path d="M62.2959 27.9906C62.002 28.7916 61.7106 29.5925 61.4167 30.396C60.4742 30.4011 59.5342 30.4011 58.5917 30.4163C58.3991 30.4189 58.2091 30.4772 58.0165 30.5101H54.9204C55.0294 30.3606 55.1054 30.2541 55.1839 30.1476C57.0867 27.5115 57.5478 24.6194 56.5495 21.5473C55.6957 18.9213 53.9373 17.076 51.3125 16.1432C50.6639 15.9126 49.9595 15.8315 49.283 15.6794C48.7915 15.5045 48.2974 15.5095 47.8059 15.6743C44.4817 16.0393 42.1254 17.7325 40.7725 20.797C40.2404 22.0061 40.101 23.2861 40.0504 24.5966C40.0073 25.7423 40.3088 26.8195 40.6762 27.8562C41.0081 28.7966 41.563 29.661 42.2217 30.4366C42.0266 30.4645 41.8315 30.5177 41.6339 30.5177C40.4 30.5279 39.1661 30.5253 37.9322 30.5355C37.7371 30.5355 37.5446 30.5963 37.3495 30.6292C36.8276 30.6292 36.3082 30.6292 35.7862 30.6318C35.7482 30.5938 35.7077 30.5583 35.6697 30.5203C35.0743 29.2985 34.75 28.0007 34.4941 26.67C34.3775 26.054 34.3598 25.4432 34.3446 24.8298C34.304 23.2329 34.4966 21.6563 35.0236 20.1532C36.3284 16.4271 38.781 13.7175 42.3535 12.0141C43.524 11.4565 44.7604 11.127 46.0095 10.8456C46.5517 10.724 47.1243 10.7366 47.6817 10.6885C48.2949 10.6885 48.9106 10.6885 49.5237 10.6885C50.6081 10.8659 51.7229 10.942 52.7744 11.2436C56.7725 12.3868 59.7572 14.7973 61.5104 18.607C61.9184 19.4942 62.1489 20.4624 62.4276 21.4053C62.5188 21.7095 62.5036 22.0441 62.5391 22.3635C62.5746 22.4902 62.6101 22.6169 62.6481 22.7462C62.8077 23.8818 62.8051 25.0148 62.6481 26.1504C62.6405 26.2315 62.6354 26.3101 62.6278 26.3912C62.534 26.8753 62.4428 27.3569 62.3491 27.841C62.3314 27.8917 62.3162 27.9399 62.2984 27.9906H62.2959Z" fill="white"/>
    <path d="M10.6059 30.8682C10.3018 30.8758 9.99781 30.8682 9.69631 30.8936C9.40747 30.9164 9.25292 30.7744 9.15157 30.5286C8.59163 29.17 8.02409 27.8164 7.47429 26.4527C7.14238 25.6315 6.85608 24.7899 6.5191 23.9687C5.95409 22.5974 5.35362 21.2388 4.78608 19.8675C4.49977 19.173 4.27428 18.4506 3.98798 17.756C3.46098 16.476 2.8909 15.2137 2.36897 13.9337C1.72795 12.357 1.11734 10.7652 0.491529 9.18356C0.347111 8.81855 0.187491 8.45862 0 8.01758C0.514332 8.01758 0.937453 8.01758 1.36057 8.01758C1.86731 8.02518 2.3715 8.03786 2.87823 8.04293C3.78782 8.05306 4.69993 8.06067 5.60952 8.07081C6.07824 9.33057 6.55204 10.5853 7.0157 11.8476C7.41095 12.9223 7.78593 14.0072 8.18878 15.0794C8.5891 16.1414 9.02235 17.1908 9.43027 18.2478C9.71404 18.9905 9.97754 19.7407 10.2537 20.4859C10.5172 21.2033 10.7782 21.9206 11.0518 22.6329C11.2013 23.0207 11.3736 23.3984 11.5687 23.8597C11.7435 23.4288 11.9133 23.041 12.0627 22.6455C12.3262 21.946 12.5771 21.2438 12.833 20.5417C13.0306 20.0018 13.2282 19.4619 13.4233 18.9195C13.8186 17.8245 14.2087 16.7244 14.6091 15.6294C14.9663 14.651 15.3438 13.6776 15.696 12.6967C15.924 12.063 16.109 11.4116 16.3421 10.7779C16.5853 10.1113 16.859 9.45731 17.1174 8.79574C17.2162 8.54227 17.3074 8.28373 17.4012 8.02772C19.1874 8.02772 20.9736 8.02772 22.7598 8.02772C22.5217 8.65633 22.286 9.28495 22.0428 9.91356C21.7616 10.641 21.4727 11.366 21.189 12.0909C20.8875 12.8615 20.586 13.632 20.2819 14.4026C19.9196 15.3227 19.5649 16.2453 19.1925 17.1629C18.7389 18.2757 18.255 19.3783 17.8141 20.4961C17.2517 21.9307 16.7323 23.3806 16.1698 24.8153C15.6783 26.0649 15.1411 27.2993 14.6369 28.5464C14.3405 29.2764 14.0719 30.0166 13.7907 30.7542C12.9217 30.7592 12.0551 30.7567 11.1861 30.7719C10.9935 30.7744 10.801 30.8353 10.6084 30.8682H10.6059Z" fill="white"/>
    <path d="M82.6476 7.68555C82.6628 8.87941 82.6882 10.0707 82.6958 11.2646C82.716 15.2898 82.7236 19.3149 82.7439 23.3426C82.7566 25.6492 82.7819 27.9533 82.8022 30.2599C81.2237 30.2726 79.6427 30.2878 78.0642 30.2954C77.9654 30.2954 77.8666 30.2599 77.7678 30.2396C77.7602 28.2347 77.7501 26.2322 77.7425 24.2272C77.7298 21.3528 77.7197 18.4759 77.7019 15.6015C77.6867 12.9705 77.6614 10.3369 77.6411 7.70582C77.6766 7.71089 77.7121 7.70582 77.7425 7.68555C79.3488 7.68555 80.9526 7.68555 82.5589 7.68555L82.6045 7.69822L82.6501 7.68808L82.6476 7.68555Z" fill="white"/>
    <path d="M61.1044 0.243321C59.2802 3.40667 56.6123 5.53078 53.1412 6.63086C52.3304 6.88686 51.4791 7.0136 50.643 7.19103C50.3921 7.24426 50.1337 7.27721 49.8803 7.3203C49.0721 7.3127 48.2613 7.30256 47.4531 7.29496C47.0477 7.25694 46.6423 7.21638 46.2344 7.17836H46.2369C46.1964 7.17836 46.1533 7.17836 46.1128 7.18089C45.1576 7.006 44.2049 6.80575 43.3004 6.45342C40.2651 5.27731 37.8581 3.34077 36.2315 0.48919C36.1935 0.423287 36.1809 0.342176 36.1555 0.266134C38.4637 0.261064 40.7693 0.258529 43.0775 0.25346C44.096 1.15329 45.2615 1.78951 46.579 2.1317C46.9413 2.22548 47.3163 2.26604 47.6862 2.33194C48.3348 2.51951 48.986 2.50684 49.6371 2.33955C51.3473 2.03791 52.9359 1.47267 54.2382 0.266134C54.3092 0.200231 54.4054 0.159675 54.4891 0.106445C54.6892 0.116584 54.8919 0.136862 55.0921 0.136862C56.891 0.131793 58.6873 0.119119 60.4862 0.121654C60.694 0.121654 60.8992 0.197696 61.107 0.240786L61.1044 0.243321Z" fill="white"/>
    <path d="M107.511 7.44699C107.359 7.47994 107.205 7.54078 107.053 7.54078C104.646 7.54585 102.239 7.54078 99.8318 7.54078C99.8394 7.51036 99.8419 7.47741 99.8419 7.44446C101.324 7.43685 102.809 7.42671 104.291 7.41658C104.511 7.41658 104.732 7.40644 104.952 7.40137C105.806 7.41658 106.657 7.42925 107.511 7.44446V7.44699Z" fill="white"/>
    <path d="M43.0772 0.255643C40.7691 0.260713 38.4634 0.263247 36.1553 0.268317C36.2592 0.227761 36.363 0.151719 36.4669 0.151719C38.5445 0.13651 40.6246 0.128906 42.7022 0.128906C42.8264 0.128906 42.9531 0.212553 43.0772 0.255643Z" fill="white"/>
    <path d="M61.1045 0.243335C60.8967 0.202779 60.6915 0.124202 60.4837 0.124202C58.6848 0.124202 56.8885 0.134341 55.0896 0.139411C54.8894 0.139411 54.6867 0.119133 54.4866 0.108994C54.6589 0.0785768 54.8337 0.0202779 55.006 0.0202779C56.8809 0.00760421 58.7558 0.00506947 60.6307 0C60.77 0 60.9145 0 61.0487 0.0278821C61.0791 0.0354863 61.0842 0.167293 61.0994 0.2408L61.1045 0.243335Z" fill="white"/>
    <path d="M112.16 30.0137C112.844 30.0263 113.528 30.0441 114.213 30.0466C115.261 30.0492 116.31 30.0466 117.357 30.0314C117.57 30.0289 117.785 29.9706 117.998 29.9376C117.99 29.9985 117.99 30.1074 117.975 30.11C117.775 30.1353 117.572 30.1531 117.372 30.1556C115.794 30.1632 114.213 30.1657 112.634 30.1683C112.464 30.1683 112.259 30.2443 112.158 30.0137H112.16Z" fill="white"/>
    <path d="M22.7586 8.03022C20.9724 8.03022 19.1861 8.03022 17.3999 8.03022C17.5849 7.9922 17.7698 7.9263 17.9548 7.92376C19.3559 7.90349 20.757 7.89588 22.1606 7.88574C22.3633 7.89335 22.566 7.89842 22.7713 7.90602C22.7662 7.94911 22.7637 7.9922 22.7586 8.03529V8.03022Z" fill="white"/>
    <path d="M37.3462 30.6301C37.5413 30.5972 37.7338 30.5389 37.9289 30.5364C39.1628 30.5237 40.3967 30.5288 41.6306 30.5186C41.8257 30.5186 42.0208 30.4654 42.2184 30.4375C42.2488 30.4831 42.2818 30.5287 42.3527 30.6301C40.6501 30.6301 38.9981 30.6301 37.3462 30.6301Z" fill="white"/>
    <path d="M98.4226 30.1305C99.616 30.1406 100.809 30.1558 102.005 30.1609C102.492 30.1609 102.976 30.1406 103.462 30.1279C103.323 30.1761 103.183 30.2673 103.044 30.2699C101.658 30.2876 100.272 30.2927 98.8837 30.2927C98.7216 30.2927 98.5088 30.3789 98.4226 30.133V30.1305Z" fill="white"/>
    <path d="M77.7681 30.2373C77.8669 30.2576 77.9657 30.2931 78.0645 30.2931C79.643 30.2829 81.224 30.2703 82.8024 30.2576C82.6808 30.3032 82.5592 30.3894 82.4351 30.3894C81.0086 30.4046 79.5796 30.4097 78.1532 30.4122C78.0062 30.4122 77.8137 30.473 77.7681 30.2373Z" fill="white"/>
    <path d="M82.5594 7.6797C80.9531 7.6797 79.3493 7.6797 77.7429 7.6797C77.7353 7.64421 77.7328 7.60873 77.7353 7.57324C79.3543 7.57324 80.9708 7.57578 82.5898 7.57831C82.5822 7.6138 82.5721 7.64675 82.5619 7.68224L82.5594 7.6797Z" fill="white"/>
    <path d="M107.511 7.44678C106.657 7.43157 105.806 7.4189 104.952 7.40369C105.083 7.37328 105.215 7.31498 105.347 7.31498C106.588 7.30484 107.83 7.29977 109.069 7.30737C109.241 7.30737 109.411 7.37328 109.583 7.40876C108.891 7.42144 108.2 7.43664 107.508 7.44932L107.511 7.44678Z" fill="white"/>
    <path d="M5.6071 8.07054C4.69751 8.0604 3.7854 8.0528 2.87581 8.04266C2.36908 8.03759 1.86489 8.02491 1.35815 8.01731C1.4899 7.98436 1.62165 7.92352 1.7534 7.92352C2.88088 7.91339 4.00583 7.90578 5.1333 7.91592C5.29039 7.91592 5.44748 8.01731 5.60456 8.07054H5.6071Z" fill="white"/>
    <path d="M103.498 22.8959C104.691 22.8857 105.882 22.873 107.075 22.873C107.176 22.873 107.275 22.9542 107.377 22.9973C106.089 22.9973 104.8 22.9998 103.513 23.0023C103.508 22.9668 103.503 22.9339 103.5 22.8984L103.498 22.8959Z" fill="white"/>
    <path d="M58.0156 30.5103C58.2082 30.4774 58.3982 30.4191 58.5908 30.4165C59.5333 30.4013 60.4733 30.4013 61.4158 30.3962C61.3372 30.4393 61.2587 30.5179 61.1802 30.5179C60.1262 30.523 59.0696 30.5154 58.0156 30.5103Z" fill="white"/>
    <path d="M10.6062 30.868C10.7988 30.835 10.9913 30.7742 11.1839 30.7716C12.0529 30.7564 12.9194 30.759 13.7885 30.7539C13.7099 30.797 13.6339 30.8756 13.5554 30.8756C12.5723 30.8806 11.5893 30.873 10.6062 30.868Z" fill="white"/>
    <path d="M47.4527 7.29468C48.261 7.30228 49.0717 7.31242 49.88 7.32002C49.809 7.35298 49.7356 7.41634 49.6646 7.41381C48.8437 7.39353 48.0228 7.36312 47.2019 7.33523C47.2855 7.32256 47.3691 7.30735 47.4527 7.29468Z" fill="white"/>
    <path d="M49.6367 2.34464C48.9856 2.51193 48.3344 2.52461 47.6858 2.33704C48.3369 2.33957 48.9856 2.34211 49.6367 2.34464Z" fill="white"/>
    <path d="M49.5265 10.6918C48.9134 10.6918 48.2977 10.6918 47.6846 10.6918C48.2977 10.5194 48.9134 10.522 49.5265 10.6918Z" fill="white"/>
    <path d="M99.8417 7.44748C99.8417 7.48043 99.8391 7.51084 99.8315 7.5438C99.3248 7.5514 98.8206 7.55647 98.3164 7.56407C98.4102 7.52098 98.5014 7.43987 98.5951 7.43987C99.0106 7.43227 99.4261 7.44494 99.8417 7.45001V7.44748Z" fill="white"/>
    <path d="M47.8027 15.6746C48.2968 15.5073 48.7883 15.5048 49.2799 15.6797C48.7883 15.6797 48.2943 15.6772 47.8027 15.6746Z" fill="white"/>
    <path d="M47.4526 7.29531C47.369 7.30798 47.2854 7.32319 47.2017 7.33586C46.88 7.28264 46.5557 7.23194 46.2339 7.17871C46.6393 7.21673 47.0447 7.25729 47.4526 7.29531Z" fill="white"/>
    <path d="M22.7705 7.90072C22.5678 7.89312 22.3651 7.88805 22.1599 7.88044C22.3677 7.74864 22.5729 7.73089 22.7705 7.90072Z" fill="white"/>
    <path d="M62.6465 22.747L62.5376 22.3643C62.5731 22.491 62.6085 22.6177 62.6465 22.747Z" fill="white"/>
    <path d="M77.7324 7.57382C77.7324 7.60931 77.7324 7.6448 77.74 7.68028C77.7096 7.70056 77.6741 7.70816 77.6387 7.70056C77.6691 7.65747 77.702 7.61438 77.7324 7.57129V7.57382Z" fill="white"/>
    <path d="M46.1157 7.18125C46.1563 7.18125 46.1993 7.18125 46.2399 7.17871C46.1993 7.17871 46.1563 7.17871 46.1157 7.18125Z" fill="white"/>
    <path d="M82.5592 7.6811C82.5694 7.64787 82.5796 7.61208 82.5873 7.57629C82.6077 7.61208 82.6282 7.64787 82.6486 7.68366L82.6026 7.69388L82.5566 7.6811H82.5592Z" fill="white"/>
    <path d="M103.498 22.8965C103.503 22.9323 103.508 22.9655 103.511 23.0013L103.46 23.0141L103.409 23.009C103.437 22.9706 103.467 22.9348 103.496 22.8965H103.498Z" fill="white"/>
    <path d="M117.003 12.5269C116.965 12.4813 116.929 12.4357 116.891 12.3926C116.929 12.4382 116.965 12.4838 117.003 12.5269Z" fill="white"/>
    <path d="M117.085 12.7902C117.065 12.7369 117.045 12.6837 117.024 12.6279C117.045 12.6812 117.065 12.7344 117.085 12.7902Z" fill="white"/>
    <path d="M103.396 18.364C104.407 18.3665 105.42 18.3716 106.431 18.3742C107.361 18.3742 108.294 18.3742 109.223 18.3742C108.947 18.4122 108.669 18.4831 108.392 18.4857C106.86 18.5034 105.329 18.506 103.796 18.5009C103.662 18.5009 103.528 18.4122 103.396 18.364Z" fill="white"/>
    <path d="M109.098 12.0421C107.195 12.0447 105.289 12.0497 103.387 12.0523C103.445 12.0142 103.503 11.9407 103.562 11.9407C105.3 11.9306 107.04 11.9281 108.778 11.9306C108.885 11.9306 108.989 12.0016 109.095 12.0421H109.098Z" fill="white"/>
  </g>
  <defs>
    <clipPath id="clip0_157_248">
      <rect width="118" height="30.8959" fill="white"/>
    </clipPath>
  </defs>
</svg>