<svg width="380" height="98" viewBox="0 0 380 98" fill="none" xmlns="http://www.w3.org/2000/svg">
<path d="M184.389 97.8761H156.425C156.425 97.272 156.425 96.7404 156.425 96.2088C156.425 64.9412 156.425 33.6978 156.378 2.43028C156.378 1.2221 156.807 0.980469 157.833 0.980469C165.588 1.00463 173.342 0.980469 181.096 1.0288C182.17 1.0288 183.244 1.27043 184.389 1.39125V97.8519V97.8761Z" fill="#252525"/>
<path d="M60.5347 33.9156C61.4414 35.7279 60.9164 37.1535 60.3438 38.5309C59.2463 41.2855 58.0294 43.9676 57.0034 46.7464C52.3508 59.0215 47.7459 71.3207 43.141 83.6199C41.4946 88.0418 39.8483 92.4396 38.2497 96.8615C37.9395 97.7314 37.5101 98.0939 36.6034 97.973C36.2216 97.9247 35.7922 97.9005 35.4104 97.973C34.0981 98.1422 33.4778 97.5139 33.0483 96.2574C29.2785 85.0939 25.4848 73.9545 21.6672 62.8152C16.9907 49.1628 12.3142 35.5104 7.59001 21.858C5.32334 15.1889 2.88965 8.61645 0.527537 1.99565C0.455958 1.82651 0.479818 1.60903 0.432098 1.24658H27.9423C29.4455 5.6685 30.9009 9.94544 32.3564 14.2465C33.3585 17.2186 34.3606 20.2149 35.3866 23.187C38.1543 31.3543 40.922 39.5216 43.6897 47.6888C44.3578 49.6219 45.0497 51.5791 45.7894 53.488C46.0996 54.2613 46.529 55.0345 47.054 55.6869C48.6287 57.5958 50.9192 56.8951 51.7066 55.3003C53.0905 52.4732 54.4743 49.6219 55.6434 46.6981C57.0989 43.0736 58.3396 39.3766 59.6757 35.7037C59.8666 35.1963 60.1291 34.7372 60.5347 33.9156Z" fill="#252525"/>
<path d="M321.813 55.3002C322.935 52.3522 324.104 49.4284 325.201 46.4805C328.47 37.7091 331.763 28.9378 335.008 20.1423C337.155 14.3189 339.302 8.51964 341.402 2.67208C341.808 1.53639 342.38 0.859816 343.669 1.0048C344.933 1.17394 346.389 0.521527 347.057 2.50293C349.944 11.2018 352.926 19.8765 355.933 28.5512C359.774 39.6422 363.687 50.7091 367.528 61.8001C370.797 71.2481 374.018 80.696 377.239 90.1439C378.05 92.4878 378.742 94.88 379.554 97.4413C378.862 97.5379 378.313 97.6829 377.74 97.6829C369.938 97.6829 362.136 97.5863 354.334 97.6829C352.568 97.6829 351.924 96.9822 351.423 95.4357C349.037 88.0417 346.58 80.6718 344.098 73.302C341.02 64.144 337.895 54.986 334.745 45.8281C334.363 44.7166 333.743 43.6292 332.98 42.7351C331.715 41.237 330.069 41.1887 328.923 42.7835C327.73 44.4024 326.776 46.263 325.941 48.1236C324.891 50.4675 324.08 52.9321 323.173 55.3485C322.72 55.3243 322.267 55.3002 321.789 55.276L321.813 55.3002Z" fill="#252525"/>
<path d="M270.116 42.0823C272.097 36.863 274.101 31.6678 276.057 26.4485C279.064 18.4262 282.094 10.4281 285.005 2.38169C285.721 0.400279 287.2 1.17351 288.464 1.00437C289.657 0.859385 290.23 1.43931 290.612 2.55083C295.742 17.5805 300.919 32.6102 306.097 47.6399C310.797 61.2923 315.545 74.9205 320.269 88.5487C321.319 91.6175 322.345 94.6862 323.419 97.9241C321.844 97.9241 320.389 97.9241 318.909 97.9241C311.799 97.8275 304.713 97.6825 297.603 97.6583C296.338 97.6583 295.789 97.1992 295.384 96.0152C291.495 84.6342 287.51 73.3015 283.573 61.9205C281.76 56.677 279.994 51.3852 278.181 46.1418C277.895 45.3444 277.584 44.547 277.155 43.8221C276.057 42.0098 275.079 41.6232 273.027 42.0823C272.049 42.0823 271.071 42.0823 270.092 42.0823H270.116Z" fill="#252525"/>
<path d="M109.418 57.8138C108.703 59.8435 107.987 61.8733 107.247 63.8788C104.074 72.3119 100.877 80.745 97.7032 89.178C96.7966 91.6185 95.8661 94.059 95.0548 96.5237C94.6253 97.8285 93.7187 98.046 92.6211 97.9252C91.619 97.8044 90.3783 98.1185 89.8773 96.717C87.4197 89.613 84.9144 82.5331 82.4808 75.429C78.186 62.9123 73.9628 50.3956 69.6204 37.9031C65.4211 25.8455 61.1502 13.8121 56.9032 1.7545C56.8793 1.65785 56.9032 1.5612 56.9032 1.24707H84.3418C86.7278 8.3753 89.0422 15.3344 91.4043 22.2451C94.7685 32.1039 98.1566 41.9384 101.545 51.7971C101.783 52.4495 102.046 53.1019 102.332 53.7543C103.62 56.4606 104.265 56.8473 107.199 56.6056C107.939 57.0164 108.679 57.4514 109.418 57.8621V57.8138Z" fill="#252525"/>
<path d="M218.455 39.1826C219.003 49.2829 218.789 59.3832 218.335 69.4594C218.168 69.4594 217.977 69.5078 217.81 69.5319C217.667 69.097 217.405 68.662 217.381 68.2271C217.095 63.3702 213.301 57.6435 206.644 56.2903C203.304 55.6137 199.892 55.2755 196.527 54.768C196.122 54.6955 195.74 54.5264 195.311 54.0431C195.883 53.8498 196.432 53.5357 197.029 53.4632C199.581 53.0524 202.158 52.6658 204.735 52.3517C209.316 51.7717 216.593 47.7606 217.357 40.4632C217.405 39.9558 217.691 39.4725 217.882 38.9893C218.073 39.0617 218.264 39.1584 218.478 39.2309L218.455 39.1826Z" fill="#252525"/>
<path d="M234.051 25.4584C234.195 20.6015 232.763 16.1554 230.401 12.0234C227.323 6.65915 222.79 3.22794 216.538 2.50303C215.417 2.38221 214.272 2.30972 213.15 2.16474C212.745 2.11642 212.339 1.87478 211.647 1.60898C212.124 1.39151 212.244 1.29486 212.363 1.29486C219.449 1.22237 226.536 1.17404 233.646 1.05322C235.054 1.05322 235.483 1.48817 235.459 2.96214C235.364 10.4528 235.388 17.9435 235.364 25.4342C234.934 25.4342 234.505 25.4342 234.075 25.4342L234.051 25.4584Z" fill="#252525"/>
<path d="M270.127 42.0825C271.105 42.0825 272.084 42.0825 273.062 42.0825C271.678 44.4264 269.984 46.6494 268.982 49.1624C265.379 58.1754 261.991 67.285 258.579 76.3705C256.026 83.1605 253.545 89.9746 251.039 96.7887C250.777 97.5377 250.491 98.2143 249.298 97.7794C249.465 97.0303 249.56 96.2812 249.823 95.6046C251.779 90.4337 253.783 85.2627 255.74 80.0917C259.032 71.4412 262.325 62.7906 265.594 54.1401C267.121 50.129 268.624 46.0937 270.127 42.0825Z" fill="#252525"/>
<path d="M109.434 57.8136C108.695 57.4028 107.955 56.9679 107.215 56.5571C107.955 55.5181 108.933 54.5757 109.387 53.4159C113.013 44.1371 116.521 34.8341 120.076 25.5312C122.08 20.3119 124.084 15.0684 126.112 9.84908C126.279 9.4383 126.613 9.12417 126.876 8.76172C127.186 8.88254 127.52 9.00335 127.83 9.12417C127.281 10.6223 126.756 12.1204 126.184 13.6186C123.965 19.4661 121.746 25.3137 119.479 31.1613C118.048 34.8583 116.497 38.507 115.089 42.2282C114.516 43.7505 114.182 45.3694 113.634 46.8917C112.274 50.5404 110.842 54.1649 109.434 57.8136Z" fill="#252525"/>
<path d="M321.824 55.2998C322.277 55.324 322.73 55.3481 323.208 55.3723C322.062 58.3444 320.917 61.3165 319.748 64.3128C319.128 61.0024 320.941 58.2478 321.824 55.2998Z" fill="#252525"/>
<path d="M127.819 9.14802C127.509 9.0272 127.175 8.90638 126.865 8.78557C127.103 8.20564 127.318 7.62572 127.557 7.04579C127.604 6.90081 127.676 6.75583 127.724 6.58669C128.153 5.01606 128.511 3.44543 129.036 1.92313C129.155 1.56068 129.823 1.39154 130.229 1.1499C130.324 1.24656 130.42 1.31905 130.491 1.4157C129.871 3.17964 129.251 4.96773 128.654 6.73167C128.606 6.87665 128.535 7.04579 128.487 7.19077C128.272 7.84319 128.034 8.4956 127.819 9.14802Z" fill="#252525"/>
<path d="M234.045 25.4585C234.475 25.4585 234.904 25.4585 235.334 25.4585C235.429 26.4975 235.835 27.609 234.427 28.6722C234.284 27.4399 234.164 26.4492 234.045 25.4827V25.4585Z" fill="#252525"/>
</svg>