<svg xmlns="http://www.w3.org/2000/svg" width="20" height="20" viewBox="0 0 20 20" fill="none">
  <g clip-path="url(#clip0_179_248)">
    <path d="M14.2753 11.8628C14.0378 11.7503 12.9003 11.1878 12.6878 11.1003C12.4753 11.0128 12.3253 10.9878 12.1628 11.2253C12.0003 11.4628 11.5628 11.9753 11.4253 12.1378C11.2878 12.3003 11.1628 12.3128 10.9253 12.1378C10.2431 11.864 9.61312 11.475 9.06278 10.9878C8.5646 10.5187 8.14284 9.97467 7.81278 9.37529C7.67528 9.15029 7.81278 9.02529 7.91278 8.90029C8.01278 8.77529 8.13778 8.63779 8.26278 8.50029C8.35419 8.38138 8.42982 8.25113 8.48778 8.11279C8.51879 8.04846 8.5349 7.97796 8.5349 7.90654C8.5349 7.83512 8.51879 7.76462 8.48778 7.70029C8.48778 7.58779 7.96278 6.45029 7.76278 5.98779C7.56278 5.52529 7.38778 5.58779 7.25028 5.58779H6.75028C6.5121 5.59708 6.28732 5.70047 6.12528 5.87529C5.86373 6.12488 5.65655 6.42581 5.51674 6.75921C5.37693 7.09261 5.30749 7.4513 5.31278 7.81279C5.37672 8.70027 5.70304 9.5487 6.25028 10.2503C7.2545 11.7421 8.62837 12.948 10.2378 13.7503C10.7878 13.9878 11.2128 14.1253 11.5503 14.2378C12.0242 14.381 12.5252 14.411 13.0128 14.3253C13.3366 14.2596 13.6436 14.128 13.9145 13.9388C14.1854 13.7496 14.4146 13.5067 14.5878 13.2253C14.7319 12.8777 14.7794 12.4976 14.7253 12.1253C14.6628 12.0378 14.5128 11.9753 14.2753 11.8628Z" fill="#252525"/>
    <path d="M16.6133 3.34983C15.7488 2.47718 14.7183 1.78649 13.5827 1.31847C12.447 0.850459 11.2291 0.614608 10.0008 0.62483C8.37365 0.633345 6.77723 1.06862 5.37096 1.88718C3.96469 2.70574 2.7978 3.87894 1.98683 5.2896C1.17586 6.70026 0.749193 8.29901 0.749448 9.92616C0.749703 11.5533 1.17687 13.1519 1.98828 14.5623L0.738281 19.3748L5.66328 18.1248C7.02482 18.8657 8.55072 19.2526 10.1008 19.2498H10.0008C11.8482 19.2619 13.6573 18.7234 15.1975 17.7031C16.7376 16.6829 17.939 15.227 18.6484 13.5212C19.3578 11.8154 19.5431 9.93696 19.1806 8.12543C18.8182 6.3139 17.9244 4.65136 16.6133 3.34983ZM10.0008 17.6498C8.61397 17.6509 7.25295 17.275 6.06328 16.5623L5.78828 16.3998L2.86328 17.1623L3.63828 14.3123L3.46328 14.0248C2.46498 12.4171 2.09155 10.4989 2.41384 8.6341C2.73614 6.76931 3.73174 5.08769 5.21174 3.90831C6.69174 2.72894 8.55317 2.13385 10.4429 2.23598C12.3325 2.3381 14.119 3.13032 15.4633 4.46233C16.184 5.1772 16.7552 6.02834 17.1436 6.96617C17.532 7.904 17.7299 8.90975 17.7258 9.92483C17.7225 11.9726 16.9075 13.9356 15.4595 15.3836C14.0115 16.8316 12.0486 17.6465 10.0008 17.6498Z" fill="#252525"/>
  </g>
  <defs>
    <clipPath id="clip0_179_248">
      <rect width="20" height="20" fill="white"/>
    </clipPath>
  </defs>
</svg>