<svg width="512" height="512" viewBox="0 0 512 512" fill="none" xmlns="http://www.w3.org/2000/svg">
<path d="M250.389 304.876H222.425C222.425 304.272 222.425 303.74 222.425 303.209C222.425 271.941 222.425 240.698 222.378 209.43C222.378 208.222 222.807 207.98 223.833 207.98C231.588 208.005 239.342 207.98 247.096 208.029C248.17 208.029 249.244 208.27 250.389 208.391V304.852V304.876Z" fill="white"/>
<path d="M126.535 240.916C127.441 242.728 126.916 244.154 126.344 245.531C125.246 248.285 124.029 250.968 123.003 253.746C118.351 266.021 113.746 278.321 109.141 290.62C107.495 295.042 105.848 299.44 104.25 303.862C103.94 304.731 103.51 305.094 102.603 304.973C102.222 304.925 101.792 304.901 101.41 304.973C100.098 305.142 99.4778 304.514 99.0483 303.257C95.2785 292.094 91.4848 280.955 87.6672 269.815C82.9907 256.163 78.3142 242.51 73.59 228.858C71.3233 222.189 68.8896 215.616 66.5275 208.996C66.456 208.827 66.4798 208.609 66.4321 208.247H93.9423C95.4455 212.669 96.9009 216.945 98.3564 221.247C99.3585 224.219 100.361 227.215 101.387 230.187C104.154 238.354 106.922 246.522 109.69 254.689C110.358 256.622 111.05 258.579 111.789 260.488C112.1 261.261 112.529 262.035 113.054 262.687C114.629 264.596 116.919 263.895 117.707 262.3C119.09 259.473 120.474 256.622 121.643 253.698C123.099 250.074 124.34 246.377 125.676 242.704C125.867 242.196 126.129 241.737 126.535 240.916Z" fill="white"/>
<path d="M387.813 262.3C388.935 259.352 390.104 256.428 391.201 253.48C394.47 244.709 397.763 235.938 401.008 227.142C403.155 221.319 405.302 215.52 407.402 209.672C407.808 208.536 408.38 207.86 409.669 208.005C410.933 208.174 412.389 207.522 413.057 209.503C415.944 218.202 418.926 226.876 421.933 235.551C425.774 246.642 429.687 257.709 433.528 268.8C436.797 278.248 440.018 287.696 443.239 297.144C444.05 299.488 444.742 301.88 445.554 304.441C444.862 304.538 444.313 304.683 443.74 304.683C435.938 304.683 428.136 304.586 420.334 304.683C418.568 304.683 417.924 303.982 417.423 302.436C415.037 295.042 412.58 287.672 410.098 280.302C407.02 271.144 403.895 261.986 400.745 252.828C400.363 251.717 399.743 250.629 398.98 249.735C397.715 248.237 396.069 248.189 394.923 249.783C393.73 251.402 392.776 253.263 391.941 255.124C390.891 257.467 390.08 259.932 389.173 262.348C388.72 262.324 388.267 262.3 387.789 262.276L387.813 262.3Z" fill="white"/>
<path d="M336.116 249.082C338.097 243.863 340.101 238.668 342.057 233.449C345.064 225.426 348.094 217.428 351.005 209.382C351.721 207.4 353.2 208.174 354.464 208.004C355.657 207.859 356.23 208.439 356.612 209.551C361.742 224.581 366.919 239.61 372.097 254.64C376.797 268.292 381.545 281.92 386.269 295.549C387.319 298.617 388.345 301.686 389.419 304.924C387.844 304.924 386.389 304.924 384.909 304.924C377.799 304.827 370.713 304.682 363.603 304.658C362.338 304.658 361.789 304.199 361.384 303.015C357.495 291.634 353.51 280.302 349.573 268.921C347.76 263.677 345.994 258.385 344.181 253.142C343.895 252.344 343.584 251.547 343.155 250.822C342.057 249.01 341.079 248.623 339.027 249.082C338.049 249.082 337.071 249.082 336.092 249.082H336.116Z" fill="white"/>
<path d="M175.418 264.814C174.703 266.844 173.987 268.873 173.247 270.879C170.074 279.312 166.877 287.745 163.703 296.178C162.797 298.619 161.866 301.059 161.055 303.524C160.625 304.829 159.719 305.046 158.621 304.925C157.619 304.804 156.378 305.119 155.877 303.717C153.42 296.613 150.914 289.533 148.481 282.429C144.186 269.912 139.963 257.396 135.62 244.903C131.421 232.846 127.15 220.812 122.903 208.755C122.879 208.658 122.903 208.561 122.903 208.247H150.342C152.728 215.375 155.042 222.334 157.404 229.245C160.769 239.104 164.157 248.938 167.545 258.797C167.783 259.45 168.046 260.102 168.332 260.754C169.62 263.461 170.265 263.847 173.199 263.606C173.939 264.016 174.679 264.451 175.418 264.862V264.814Z" fill="white"/>
<path d="M284.455 246.183C285.003 256.283 284.789 266.383 284.335 276.459C284.168 276.459 283.977 276.508 283.81 276.532C283.667 276.097 283.405 275.662 283.381 275.227C283.095 270.37 279.301 264.643 272.644 263.29C269.304 262.614 265.892 262.275 262.527 261.768C262.122 261.696 261.74 261.526 261.311 261.043C261.883 260.85 262.432 260.536 263.029 260.463C265.581 260.052 268.158 259.666 270.735 259.352C275.316 258.772 282.593 254.761 283.357 247.463C283.405 246.956 283.691 246.473 283.882 245.989C284.073 246.062 284.264 246.158 284.478 246.231L284.455 246.183Z" fill="white"/>
<path d="M300.051 232.458C300.195 227.601 298.763 223.155 296.401 219.023C293.323 213.659 288.79 210.228 282.538 209.503C281.417 209.382 280.272 209.31 279.15 209.165C278.745 209.116 278.339 208.875 277.647 208.609C278.124 208.392 278.244 208.295 278.363 208.295C285.449 208.222 292.536 208.174 299.646 208.053C301.054 208.053 301.483 208.488 301.459 209.962C301.364 217.453 301.388 224.944 301.364 232.434C300.934 232.434 300.505 232.434 300.075 232.434L300.051 232.458Z" fill="white"/>
<path d="M336.127 249.083C337.105 249.083 338.084 249.083 339.062 249.083C337.678 251.426 335.984 253.649 334.982 256.162C331.379 265.175 327.991 274.285 324.579 283.371C322.026 290.16 319.545 296.975 317.039 303.789C316.777 304.538 316.491 305.214 315.298 304.779C315.465 304.03 315.56 303.281 315.823 302.605C317.779 297.434 319.783 292.263 321.74 287.092C325.032 278.441 328.325 269.791 331.594 261.14C333.121 257.129 334.624 253.094 336.127 249.083Z" fill="white"/>
<path d="M175.434 264.814C174.695 264.403 173.955 263.968 173.215 263.557C173.955 262.518 174.933 261.576 175.387 260.416C179.013 251.137 182.521 241.834 186.076 232.531C188.08 227.312 190.084 222.068 192.112 216.849C192.279 216.438 192.613 216.124 192.876 215.762C193.186 215.883 193.52 216.003 193.83 216.124C193.281 217.622 192.756 219.12 192.184 220.619C189.965 226.466 187.746 232.314 185.479 238.161C184.048 241.858 182.497 245.507 181.089 249.228C180.516 250.75 180.182 252.369 179.634 253.892C178.274 257.54 176.842 261.165 175.434 264.814Z" fill="white"/>
<path d="M387.824 262.3C388.277 262.324 388.73 262.348 389.208 262.372C388.062 265.344 386.917 268.317 385.748 271.313C385.128 268.002 386.941 265.248 387.824 262.3Z" fill="white"/>
<path d="M193.819 216.148C193.509 216.027 193.175 215.906 192.865 215.786C193.103 215.206 193.318 214.626 193.557 214.046C193.604 213.901 193.676 213.756 193.724 213.587C194.153 212.016 194.511 210.445 195.036 208.923C195.155 208.561 195.823 208.392 196.229 208.15C196.324 208.247 196.42 208.319 196.491 208.416C195.871 210.18 195.251 211.968 194.654 213.732C194.606 213.877 194.535 214.046 194.487 214.191C194.272 214.843 194.034 215.496 193.819 216.148Z" fill="white"/>
<path d="M300.045 232.458C300.475 232.458 300.904 232.458 301.334 232.458C301.429 233.498 301.835 234.609 300.427 235.672C300.284 234.44 300.164 233.449 300.045 232.483V232.458Z" fill="white"/>
</svg>
